<svg width="135" height="32" viewBox="0 0 135 32" fill="none" xmlns="http://www.w3.org/2000/svg">
<path d="M23.5998 10.2671C23.9901 9.89135 24.4661 9.61635 24.9866 9.46596C25.5071 9.31557 26.0564 9.29431 26.587 9.40403C27.1175 9.51376 27.6133 9.75115 28.0315 10.0957C28.4496 10.4402 28.7775 10.8814 28.9867 11.3812C29.1959 11.8809 29.2801 12.4242 29.2321 12.9638C29.1841 13.5035 29.0052 14.0233 28.711 14.4782C28.4169 14.9332 28.0162 15.3096 27.5438 15.5748C27.0714 15.8401 26.5414 15.9862 25.9998 16.0005H2.6665" stroke="#51A5FF" stroke-width="2" stroke-linecap="round" stroke-linejoin="round"/>
<path d="M12.7998 6.13372C13.1087 5.81866 13.491 5.58517 13.9123 5.45419C14.3337 5.32321 14.7809 5.29882 15.214 5.38322C15.6471 5.46762 16.0525 5.65816 16.3938 5.93777C16.7352 6.21738 17.0018 6.57732 17.1698 6.98532C17.3378 7.39332 17.4019 7.83663 17.3564 8.27551C17.3109 8.71439 17.1573 9.13513 16.9092 9.50002C16.6611 9.8649 16.3263 10.1625 15.9349 10.3662C15.5435 10.5699 15.1077 10.6733 14.6665 10.6671H2.6665" stroke="#51A5FF" stroke-width="2" stroke-linecap="round" stroke-linejoin="round"/>
<path d="M16.7998 25.8666C17.1087 26.1817 17.491 26.4152 17.9123 26.5461C18.3337 26.6771 18.7809 26.7015 19.214 26.6171C19.6471 26.5327 20.0525 26.3422 20.3938 26.0626C20.7352 25.7829 21.0018 25.423 21.1698 25.015C21.3378 24.607 21.4019 24.1637 21.3564 23.7248C21.3109 23.2859 21.1573 22.8652 20.9092 22.5003C20.6611 22.1354 20.3263 21.8378 19.9349 21.6341C19.5435 21.4304 19.1077 21.3271 18.6665 21.3333H2.6665" stroke="#51A5FF" stroke-width="2" stroke-linecap="round" stroke-linejoin="round"/>
<path d="M47.58 23L44.12 8.84H47.3L49.78 19.86L52.28 8.84H56.06L58.52 19.86L60.94 8.84H63.96L60.54 23H56.58L54.1 12.28L51.66 23H47.58ZM65.1781 23V12.46H67.9781V23H65.1781ZM66.5781 11.4C66.0581 11.4 65.6381 11.2467 65.3181 10.94C64.9981 10.62 64.8381 10.2133 64.8381 9.72C64.8381 9.2 65.0048 8.78 65.3381 8.46C65.6715 8.14 66.0915 7.98 66.5981 7.98C67.0648 7.98 67.4648 8.14 67.7981 8.46C68.1448 8.76667 68.3181 9.18 68.3181 9.7C68.3181 10.2067 68.1515 10.62 67.8181 10.94C67.4981 11.2467 67.0848 11.4 66.5781 11.4ZM70.1977 23V12.46H72.8177L72.9577 13.68C73.251 13.32 73.5843 13.04 73.9577 12.84C74.3443 12.6267 74.731 12.48 75.1177 12.4C75.5177 12.32 75.8777 12.28 76.1977 12.28C77.211 12.28 77.9977 12.5 78.5577 12.94C79.131 13.38 79.5377 13.9733 79.7777 14.72C80.031 15.4533 80.1577 16.2733 80.1577 17.18V23H77.3577V17.54C77.3577 17.22 77.331 16.9 77.2777 16.58C77.2243 16.26 77.1243 15.9667 76.9777 15.7C76.8443 15.4333 76.651 15.22 76.3977 15.06C76.1443 14.9 75.811 14.82 75.3977 14.82C74.8643 14.82 74.4177 14.9533 74.0577 15.22C73.6977 15.4867 73.431 15.8467 73.2577 16.3C73.0843 16.7533 72.9977 17.2533 72.9977 17.8V23H70.1977ZM86.647 23.14C85.5804 23.14 84.6937 22.9 83.987 22.42C83.2937 21.9267 82.7737 21.2733 82.427 20.46C82.0804 19.6333 81.907 18.72 81.907 17.72C81.907 16.6667 82.0937 15.7333 82.467 14.92C82.8404 14.0933 83.3937 13.4467 84.127 12.98C84.8604 12.5133 85.7737 12.28 86.867 12.28C87.2404 12.28 87.607 12.3267 87.967 12.42C88.3404 12.5 88.6804 12.6267 88.987 12.8C89.307 12.96 89.5804 13.1733 89.807 13.44V8.84H92.607V23H89.887L89.847 21.82C89.607 22.1267 89.3137 22.38 88.967 22.58C88.6337 22.7667 88.2737 22.9067 87.887 23C87.5004 23.0933 87.087 23.14 86.647 23.14ZM87.207 20.62C87.807 20.62 88.2937 20.48 88.667 20.2C89.0537 19.92 89.3404 19.56 89.527 19.12C89.7137 18.68 89.807 18.2067 89.807 17.7C89.807 17.18 89.7137 16.7067 89.527 16.28C89.3537 15.84 89.0737 15.4933 88.687 15.24C88.3137 14.9733 87.8204 14.84 87.207 14.84C86.5937 14.84 86.1004 14.98 85.727 15.26C85.3537 15.54 85.087 15.9067 84.927 16.36C84.7804 16.8 84.707 17.2733 84.707 17.78C84.707 18.1533 84.747 18.5133 84.827 18.86C84.9204 19.1933 85.067 19.4933 85.267 19.76C85.467 20.0267 85.727 20.24 86.047 20.4C86.367 20.5467 86.7537 20.62 87.207 20.62ZM95.207 23V8.84H100.907C101.614 8.84 102.287 8.91333 102.927 9.06C103.58 9.19333 104.167 9.42667 104.687 9.76C105.207 10.0933 105.614 10.56 105.907 11.16C106.214 11.7467 106.367 12.5 106.367 13.42C106.367 14.1 106.254 14.7133 106.027 15.26C105.8 15.8067 105.467 16.2733 105.027 16.66C104.587 17.0467 104.06 17.3467 103.447 17.56L106.587 23H103.367L100.607 18.02H98.067V23H95.207ZM98.067 15.48H100.707C101.12 15.48 101.494 15.4467 101.827 15.38C102.174 15.3 102.467 15.18 102.707 15.02C102.96 14.86 103.154 14.6467 103.287 14.38C103.434 14.1133 103.507 13.7867 103.507 13.4C103.52 12.9067 103.414 12.5267 103.187 12.26C102.974 11.98 102.667 11.7867 102.267 11.68C101.88 11.56 101.42 11.5 100.887 11.5H98.067V15.48ZM108.596 23V12.46H111.396V23H108.596ZM109.996 11.4C109.476 11.4 109.056 11.2467 108.736 10.94C108.416 10.62 108.256 10.2133 108.256 9.72C108.256 9.2 108.423 8.78 108.756 8.46C109.089 8.14 109.509 7.98 110.016 7.98C110.483 7.98 110.883 8.14 111.216 8.46C111.563 8.76667 111.736 9.18 111.736 9.7C111.736 10.2067 111.569 10.62 111.236 10.94C110.916 11.2467 110.503 11.4 109.996 11.4ZM117.736 23.14C117.242 23.14 116.736 23.0867 116.216 22.98C115.696 22.8733 115.216 22.6933 114.776 22.44C114.336 22.1733 113.962 21.82 113.656 21.38C113.349 20.9267 113.149 20.3667 113.056 19.7H115.896C115.976 19.94 116.116 20.1467 116.316 20.32C116.529 20.4933 116.769 20.62 117.036 20.7C117.316 20.78 117.596 20.82 117.876 20.82C118.062 20.82 118.249 20.8067 118.436 20.78C118.622 20.7533 118.796 20.7 118.956 20.62C119.116 20.54 119.242 20.44 119.336 20.32C119.429 20.1867 119.476 20.02 119.476 19.82C119.476 19.6067 119.409 19.44 119.276 19.32C119.142 19.2 118.956 19.1067 118.716 19.04C118.476 18.96 118.202 18.8867 117.896 18.82C117.349 18.7 116.762 18.5667 116.136 18.42C115.509 18.2733 114.969 18.06 114.516 17.78C114.329 17.6467 114.162 17.5 114.016 17.34C113.869 17.18 113.749 17 113.656 16.8C113.562 16.6 113.489 16.3933 113.436 16.18C113.382 15.9533 113.356 15.7133 113.356 15.46C113.356 14.8867 113.476 14.4 113.716 14C113.969 13.5867 114.302 13.2533 114.716 13C115.129 12.7467 115.589 12.5667 116.096 12.46C116.602 12.34 117.122 12.28 117.656 12.28C118.376 12.28 119.042 12.4 119.656 12.64C120.269 12.8667 120.776 13.2267 121.176 13.72C121.576 14.2 121.822 14.8267 121.916 15.6H119.236C119.182 15.3067 119.002 15.0733 118.696 14.9C118.389 14.7133 118.009 14.62 117.556 14.62C117.396 14.62 117.222 14.6333 117.036 14.66C116.862 14.6867 116.702 14.7333 116.556 14.8C116.409 14.8667 116.289 14.96 116.196 15.08C116.102 15.1867 116.056 15.3333 116.056 15.52C116.056 15.6667 116.096 15.8 116.176 15.92C116.269 16.04 116.396 16.14 116.556 16.22C116.729 16.3 116.936 16.3733 117.176 16.44C117.629 16.5467 118.082 16.6467 118.536 16.74C119.002 16.82 119.416 16.9067 119.776 17C120.216 17.0933 120.616 17.2467 120.976 17.46C121.349 17.6733 121.649 17.9667 121.876 18.34C122.116 18.7 122.236 19.1733 122.236 19.76C122.236 20.4267 122.102 20.98 121.836 21.42C121.569 21.8467 121.209 22.1867 120.756 22.44C120.316 22.6933 119.829 22.8733 119.296 22.98C118.776 23.0867 118.256 23.14 117.736 23.14ZM128.69 23.14C127.583 23.14 126.643 22.92 125.87 22.48C125.096 22.04 124.503 21.42 124.09 20.62C123.676 19.8067 123.47 18.86 123.47 17.78C123.47 16.6867 123.683 15.7333 124.11 14.92C124.536 14.0933 125.136 13.4467 125.91 12.98C126.696 12.5133 127.623 12.28 128.69 12.28C129.49 12.28 130.19 12.4133 130.79 12.68C131.403 12.9467 131.916 13.32 132.33 13.8C132.756 14.28 133.07 14.84 133.27 15.48C133.483 16.1067 133.583 16.7867 133.57 17.52C133.57 17.7067 133.563 17.8867 133.55 18.06C133.536 18.2333 133.51 18.4067 133.47 18.58H126.25C126.29 18.98 126.403 19.3467 126.59 19.68C126.776 20.0133 127.036 20.28 127.37 20.48C127.716 20.6667 128.143 20.76 128.65 20.76C128.983 20.76 129.29 20.7267 129.57 20.66C129.85 20.58 130.09 20.46 130.29 20.3C130.49 20.14 130.63 19.9533 130.71 19.74H133.47C133.296 20.5267 132.97 21.1733 132.49 21.68C132.023 22.1867 131.456 22.56 130.79 22.8C130.123 23.0267 129.423 23.14 128.69 23.14ZM126.31 16.62H130.89C130.876 16.26 130.783 15.9267 130.61 15.62C130.45 15.3 130.203 15.0467 129.87 14.86C129.55 14.66 129.136 14.56 128.63 14.56C128.123 14.56 127.696 14.66 127.35 14.86C127.016 15.06 126.763 15.32 126.59 15.64C126.43 15.9467 126.336 16.2733 126.31 16.62Z" fill="#51A5FF"/>
</svg>
